<svg id="svg-y-pay" viewBox="0 0 75 30" fill="none" xmlns="http://www.w3.org/2000/svg">
<path d="M47.4596 4.80998V24.4862H44.0388V7.47123H37.9324V24.4862H34.5117V4.80998H47.4596Z" fill="black" fill-opacity="0.86"/>
<path d="M53.1876 24.7693C51.6799 24.7693 50.5208 24.4768 49.7104 23.8917V21.1455C50.1439 21.4475 50.615 21.6834 51.1239 21.8533C51.6516 22.0231 52.2736 22.1081 52.9897 22.1081C54.064 22.1081 54.8744 21.7966 55.421 21.1738C55.9676 20.5321 56.3068 19.6544 56.4387 18.5409H51.4914V15.8796H56.4105C56.0901 13.7091 54.9781 12.6238 53.0746 12.6238C52.4903 12.6238 51.906 12.7182 51.3218 12.907C50.7564 13.0957 50.3041 13.2939 49.9648 13.5015V10.6421C50.3229 10.4533 50.8035 10.2929 51.4066 10.1608C52.0097 10.0287 52.7353 9.9626 53.5834 9.9626C54.6389 9.9626 55.5624 10.1513 56.3539 10.5288C57.1643 10.8874 57.8334 11.397 58.3611 12.0576C58.9077 12.6993 59.3129 13.4826 59.5768 14.4074C59.8595 15.3134 60.0008 16.3043 60.0008 17.3801C60.0008 19.7771 59.4354 21.6079 58.3046 22.8725C57.1926 24.137 55.487 24.7693 53.1876 24.7693Z" fill="black" fill-opacity="0.86"/>
<path d="M67.9965 8.37718C66.6395 8.37718 65.6123 8.03745 64.915 7.35798C64.2365 6.67851 63.8973 5.82918 63.8973 4.80998H66.7243C66.7243 5.30071 66.8374 5.65931 67.0636 5.8858C67.3086 6.11229 67.6195 6.22554 67.9965 6.22554C68.3546 6.22554 68.6373 6.11229 68.8446 5.8858C69.0519 5.64044 69.1556 5.28183 69.1556 4.80998H71.9826C71.9826 5.30071 71.8978 5.76312 71.7282 6.19723C71.5586 6.63133 71.3041 7.00881 70.9649 7.32967C70.6445 7.65053 70.2298 7.90533 69.721 8.09407C69.231 8.28281 68.6561 8.37718 67.9965 8.37718ZM65.5087 10.2457V19.0788L70.6539 10.2457H73.6506V24.4862H70.3995V15.6814L65.2542 24.4862H62.2576V10.2457H65.5087Z" fill="black" fill-opacity="0.86"/>
<g clip-path="url(#clip0_2316_2578)">
<ellipse cx="14.3975" cy="14.904" rx="13.0479" ry="13.0667" fill="#FC3F1D"/>
<path d="M16.237 22.7571H18.963V7.07706H14.9979C11.0103 7.07706 8.91515 9.13013 8.91515 12.1533C8.91515 14.5674 10.0641 15.9887 12.1142 17.4552L8.55469 22.7571H11.506L15.471 16.8235L14.0968 15.8985C12.4296 14.7704 11.6186 13.8905 11.6186 11.9954C11.6186 10.3259 12.7901 9.19781 15.0204 9.19781H16.237V22.7571Z" fill="white"/>
</g>
<defs>
<clipPath id="clip0_2316_2578">
<rect x="1.34961" y="1.83733" width="26.0958" height="26.1333" rx="13.0479" fill="white"/>
</clipPath>
</defs>
</svg>
